<svg viewBox="0 0 395.52 94.79718629486372" height="94.79718629486372" width="395.52" data-background-color="#ffffff" preserveAspectRatio="xMidYMid meet" xmlns="http://www.w3.org/2000/svg" xmlns:xlink="http://www.w3.org/1999/xlink"><g id="tight-bounds"><svg viewBox="0 0 395.52 94.79718629486372" height="94.79718629486372" width="395.52"><g><svg viewBox="0 0 678.3328364200985 162.58101806239736" height="94.79718629486372" width="395.52"><g transform="matrix(1,0,0,1,282.8128364200985,0)"><svg viewBox="0 0 395.52 162.58101806239736" height="162.58101806239736" width="395.52"><g><svg viewBox="0 0 395.52 162.58101806239736" height="162.58101806239736" width="395.52"><g><svg viewBox="0 0 395.52 162.58101806239736" height="162.58101806239736" width="395.52"><g transform="matrix(1,0,0,1,0,0)"><svg width="395.52" viewBox="1.5499999523162842 -37.150001525878906 91.33999633789062 37.55000305175781" height="162.58101806239736" data-palette-color="#ee3e38"><path d="M2.73-36.15L29.48-36.15 29.48-33.68Q29.48-32.52 28.83-31.58L28.83-31.58 10.28-5.38 29.03-5.38 29.03 0 1.55 0 1.55-2.65Q1.55-3.15 1.73-3.61 1.9-4.08 2.18-4.48L2.18-4.48 20.78-30.8 2.73-30.8 2.73-36.15ZM44.02-26.05L44.02-26.05Q46.45-26.05 48.48-25.28 50.52-24.5 52-23.01 53.47-21.53 54.3-19.36 55.12-17.2 55.12-14.43L55.12-14.43Q55.12-13.73 55.06-13.26 55-12.8 54.84-12.54 54.67-12.28 54.4-12.16 54.12-12.05 53.7-12.05L53.7-12.05 37.85-12.05Q38.12-8.1 39.97-6.25 41.82-4.4 44.87-4.4L44.87-4.4Q46.37-4.4 47.46-4.75 48.55-5.1 49.36-5.53 50.17-5.95 50.78-6.3 51.4-6.65 51.97-6.65L51.97-6.65Q52.35-6.65 52.62-6.5 52.9-6.35 53.1-6.08L53.1-6.08 54.9-3.83Q53.87-2.63 52.6-1.81 51.32-1 49.94-0.51 48.55-0.03 47.11 0.18 45.67 0.38 44.32 0.38L44.32 0.38Q41.65 0.38 39.35-0.51 37.05-1.4 35.35-3.14 33.65-4.88 32.67-7.44 31.7-10 31.7-13.38L31.7-13.38Q31.7-16 32.55-18.31 33.4-20.63 34.98-22.34 36.57-24.05 38.86-25.05 41.15-26.05 44.02-26.05ZM44.15-21.63L44.15-21.63Q41.45-21.63 39.92-20.1 38.4-18.57 37.97-15.78L37.97-15.78 49.57-15.78Q49.57-16.98 49.25-18.04 48.92-19.1 48.25-19.9 47.57-20.7 46.55-21.16 45.52-21.63 44.15-21.63ZM80.25-16.2L80.25 0 77.47 0Q76.59 0 76.09-0.26 75.59-0.53 75.34-1.33L75.34-1.33 74.8-3.15Q73.82-2.27 72.88-1.61 71.94-0.95 70.94-0.5 69.94-0.05 68.82 0.18 67.69 0.4 66.32 0.4L66.32 0.4Q64.69 0.4 63.32-0.04 61.95-0.48 60.96-1.35 59.97-2.23 59.42-3.53 58.87-4.83 58.87-6.55L58.87-6.55Q58.87-8 59.63-9.41 60.39-10.83 62.17-11.96 63.95-13.1 66.89-13.85 69.84-14.6 74.22-14.7L74.22-14.7 74.22-16.2Q74.22-18.78 73.13-20.01 72.05-21.25 69.97-21.25L69.97-21.25Q68.47-21.25 67.47-20.9 66.47-20.55 65.73-20.11 65-19.68 64.37-19.33 63.74-18.98 62.99-18.98L62.99-18.98Q62.37-18.98 61.92-19.3 61.47-19.63 61.2-20.1L61.2-20.1 60.07-22.08Q64.5-26.13 70.75-26.13L70.75-26.13Q73-26.13 74.76-25.39 76.52-24.65 77.75-23.34 78.97-22.03 79.61-20.2 80.25-18.38 80.25-16.2L80.25-16.2ZM68.25-3.85L68.25-3.85Q69.19-3.85 70-4.03 70.8-4.2 71.51-4.55 72.22-4.9 72.88-5.41 73.55-5.93 74.22-6.63L74.22-6.63 74.22-10.95Q71.52-10.83 69.71-10.49 67.89-10.15 66.8-9.63 65.69-9.1 65.23-8.4 64.77-7.7 64.77-6.88L64.77-6.88Q64.77-5.25 65.73-4.55 66.69-3.85 68.25-3.85ZM86.72-37.15L92.89-37.15 92.89 0 86.72 0 86.72-37.15Z" opacity="1" transform="matrix(1,0,0,1,0,0)" fill="#ee3e38" class="undefined-text-0" data-fill-palette-color="primary" id="text-0"></path></svg></g></svg></g></svg></g></svg></g><g transform="matrix(1,0,0,1,0,0.44835230288791195)"><svg viewBox="0 0 244.43135999999998 161.68431345662154" height="161.68431345662154" width="244.43135999999998"><g><svg xmlns="http://www.w3.org/2000/svg" data-name="Layer 1" viewBox="213.02023315429688 271.3921813964844 679.8768310546875 481.2185974121094" x="8" y="0" height="161.68431345662154" width="228.43135999999998" class="icon-icon-0" data-fill-palette-color="accent" id="icon-0"><path fill="#ee3e38" d="M892.895 271.393v12.779c0 135.139 0.006 270.277-0.004 405.416-0.004 39.092-23.955 63.013-63.144 63.015-201.685 0.012-403.368 0.006-605.051 0.006h-11.671v-11.239c0-136.161-0.014-272.325 0.008-408.486 0.006-36.909 24.619-61.477 61.608-61.479 202.367-0.02 404.734-0.01 607.099-0.01l11.155-0.002zM601.936 553.779c-2.144-2.052-4.852-4.545-7.453-7.143-31.855-31.84-63.67-63.715-95.543-95.535-11.125-11.104-17.734-11.121-28.51-0.363-35.254 35.193-70.519 70.377-105.769 105.573-18.348 18.321-36.823 36.522-54.96 55.05-10.297 10.523-7.358 24.738 5.554 28.475 8.581 2.484 14.191-2.734 19.616-8.163 34.726-34.759 69.474-69.493 104.185-104.264 14.92-14.944 29.77-29.958 45.142-45.435 3.162 2.982 5.655 5.216 8.018 7.58 31.365 31.363 62.71 62.749 94.067 94.12 13.582 13.588 19.499 13.627 33.147 0.022 47.114-46.977 94.19-93.995 141.308-140.97 2.388-2.382 5.032-4.51 8.927-7.975 0.242 4.895 0.455 7.248 0.459 9.602 0.029 27.638-0.147 55.276 0.117 82.911 0.115 11.921 6.193 18.203 16.248 18.092 9.572-0.106 16.103-6.449 16.175-17.283 0.252-38.214 0.494-76.433-0.084-114.641-0.293-19.237-14.066-33.507-31.711-33.667-39.236-0.356-78.475-0.115-117.715-0.135-7.692-0.004-13.111 3.207-15.429 10.788-3.713 12.134 3.353 21.223 17.023 21.318 25.93 0.182 51.864 0.023 77.793 0.074 3.367 0.006 6.73 0.434 11.186 0.743L601.936 553.779z" data-fill-palette-color="accent"></path></svg></g></svg></g></svg></g><defs></defs></svg></g></svg>